PathFileType	4	(X/Y/Z)	62_2_29_p1_0-526_filt_butterworth.trc
DataRate	CameraRate	NumFrames	NumMarkers	Units	OrigDataRate	OrigDataStartFrame	OrigNumFrames
51.0	51.0	6	27	m	51.0	460	526
Frame#	Time	RHip			RKnee			RAnkle			RBigToe			RSmallToe			RHeel			LHip			LKnee			LAnkle			LBigToe			LSmallToe			LHeel			Neck			Head			Nose			RShoulder			RElbow			RWrist			RThumb			RIndex			RPinky			LShoulder			LElbow			LWrist			LThumb			LIndex			LPinky			
		X1	Y1	Z1	X2	Y2	Z2	X3	Y3	Z3	X4	Y4	Z4	X5	Y5	Z5	X6	Y6	Z6	X7	Y7	Z7	X8	Y8	Z8	X9	Y9	Z9	X10	Y10	Z10	X11	Y11	Z11	X12	Y12	Z12	X13	Y13	Z13	X14	Y14	Z14	X15	Y15	Z15	X16	Y16	Z16	X17	Y17	Z17	X18	Y18	Z18	X19	Y19	Z19	X20	Y20	Z20	X21	Y21	Z21	X22	Y22	Z22	X23	Y23	Z23	X24	Y24	Z24	X25	Y25	Z25	X26	Y26	Z26	X27	Y27	Z27	
460	9.019607843137257	0.3307339251606477	0.3056305073194088	0.7224052603527524	0.29371285409693426	-0.06790686460107404	0.7625587301209924	0.30459573194585915	-0.4476366198370296	0.8585785250567973	0.2930216662831028	-0.5502961881607227	0.7542545339441241	0.3619567785021154	-0.5337376824965055	0.7729968613704716	0.2890961463311135	-0.5167663914409925	0.9244345875530124	0.1263750993069491	0.30433489005351444	0.722986462212446	0.1530663581045814	-0.06074607655818265	0.7657357543451581	0.15126874393374615	-0.4596465400536148	0.9184086708797519	0.11406006136682635	-0.515032466710593	0.7332554656169799	0.08301799455504066	-0.510561978766715	0.8039501051836186	0.17961393868759273	-0.5141907564694742	0.9624133808692963	0.17850829818681457	0.822978758909795	0.47517874439826013	0.18479386610612264	1.054726464999154	0.3889110454994826	0.1862655624252308	0.9101421422048485	0.3310257939968325	0.30068995242208946	0.7708262292000546	0.4338758811368735	0.3440929053373294	0.6297809123786378	0.2947761256471692	0.3262817559176348	0.5447954296714592	0.012239341047908164	0.30043026558778607	0.49533878576971657	-0.11902441065664096	0.31491896721996043	0.4866784650519641	-0.11103091116342126	0.34554712268821364	0.46772272802237047	-0.03444417206456518	0.041041052697345495	0.759275369510589	0.5277896244858858	0.008220031220032748	0.5367462011768022	0.554419602305712	0.13023515792728968	0.5151203863873953	0.4079689446546937	0.183567411129685	0.47703759276520813	0.31510195438575395	0.19732399863099148	0.4653908477243892	0.3339064479220638	0.15662312586390525	0.44196316322860973	0.4031729314984218	
461	9.03921568627451	0.3325818438681709	0.30370589584946495	0.7236259629634112	0.2938762978563526	-0.06954754640909633	0.7622382809117801	0.30459985834458725	-0.4482121278616361	0.8590657905286455	0.2927275860687413	-0.5503369456705326	0.754536758560732	0.36207142267288017	-0.5356363272721697	0.7741527906865134	0.2887278386206376	-0.5155568339549118	0.9221679960666826	0.12722014068024873	0.30387478271282853	0.7222831084627483	0.15437296123214106	-0.06177154657763484	0.764065027332652	0.15149510036275998	-0.46010321630682804	0.9168124376412836	0.11328753785377003	-0.5137802876184457	0.730629310102617	0.08335854835685359	-0.5093147473335865	0.8008744105029175	0.17953186568402946	-0.5152534401453182	0.9621271489165008	0.18077610978713793	0.8224912483017587	0.4730988276275326	0.18590574764348117	1.054726051841718	0.3908171734724874	0.18998740967085243	0.9090038996400683	0.33192548040384307	0.3036080410622269	0.7696212987750385	0.43807835990180705	0.34610931230679765	0.6264824560830097	0.29640535164789333	0.32788897344793083	0.5396295988998006	0.012657750670855117	0.3005950949249823	0.488504163390187	-0.11898754644013648	0.3155336102296096	0.4809872006014243	-0.11037994356645933	0.34578080745913004	0.46408277314872726	-0.034190962678574244	0.04499980415578651	0.759019504460579	0.5322495060969922	0.010912356627834595	0.535257718607813	0.5610338442104026	0.13169122243305573	0.5139833019438715	0.4072299292218071	0.18473255379423906	0.4742259676726357	0.315155108382739	0.1994739534602259	0.4626853719316385	0.33405358389887724	0.1613471769485572	0.4387527267508966	0.40707365078779495	
462	9.058823529411764	0.33402190142581545	0.30207465991813665	0.7246297204055052	0.2941622402766756	-0.07106619992242119	0.7619057041061315	0.30457850281794197	-0.44870694205949635	0.8591031915200071	0.2930257351162641	-0.5507434662487245	0.7556052086008971	0.3620991289896164	-0.5360885747830082	0.7739289317630178	0.28844155766387514	-0.5144296911207301	0.9199291879423516	0.12791950430873528	0.30362201234147124	0.7211276348466782	0.1556380998233473	-0.06260759522915066	0.7625694682727889	0.15171542363657	-0.4605900752347591	0.9154789579383767	0.11271972562212844	-0.5121790122805658	0.7272332838505366	0.0836313960238266	-0.5083527528456748	0.7984076145960289	0.17958532156207854	-0.5164660948071671	0.9619828217834218	0.182434282371179	0.8231889106001068	0.4718489148403176	0.1869325826849879	1.0549354782481968	0.39264526133964617	0.1924308201008128	0.9088821981888617	0.3328175059790385	0.3066116259274912	0.7695944255126765	0.44191225358825514	0.34824041491194635	0.6246556346322171	0.29874546470310315	0.3287343059850565	0.5376706521150738	0.013035191031286086	0.2987834776149125	0.4862530801265402	-0.11960815022746857	0.3147197978829706	0.4796683671448717	-0.11080547887626899	0.34539733411550166	0.4628988495516151	-0.03184858377016975	0.04879846141327801	0.7596176310412113	0.535844759564603	0.01333559528508968	0.5356680630374725	0.56404055352299	0.1330778210964283	0.513721546036875	0.40520598543681846	0.18547043728926688	0.4740015844433386	0.3156126349837265	0.19975158767295878	0.4629566382152877	0.330860293795294	0.1641110700641581	0.43754927485993145	0.4066447709703918	
463	9.07843137254902	0.33498121045013796	0.3006501309822605	0.7254630388548549	0.29466862167384456	-0.07253934077746244	0.762021112117097	0.30454724877978034	-0.4492041343465486	0.8588657522133417	0.2940143362812231	-0.551286731923343	0.7572464243927399	0.36201024281936	-0.5350608183378807	0.7724345002760821	0.2883272981048683	-0.513755710398201	0.9181756042292835	0.1285174177193279	0.30351188326752226	0.7194932524914666	0.1567560385792819	-0.06297176139293442	0.7607683437109528	0.1519055449421276	-0.4609619772783043	0.9142479333539787	0.11242517261569066	-0.5104229113873098	0.7234261236355087	0.08379046980107613	-0.5078350280891512	0.7969762711649697	0.17977357900265106	-0.5179243102085239	0.961932451473098	0.1837087983460319	0.8249798358477578	0.4715708850306445	0.18784878625814927	1.0553213469630935	0.3942309542188984	0.19375050732258867	0.90982082380374	0.33374359851936086	0.30949040413753837	0.7707397910840507	0.445211283475476	0.3504463788265997	0.6244863002229486	0.3026840398903582	0.32867433261128676	0.5395319193918796	0.014247876784339725	0.2951739123762128	0.488992684299939	-0.12004914456864416	0.3121469817616597	0.4826154834326495	-0.11159169836831781	0.34457477178919127	0.46439181779230165	-0.027728824711364675	0.05192523610622522	0.7610022433442082	0.53814627734113	0.015198371487278116	0.5380249583152464	0.5627071250549911	0.1337310423112927	0.5143967451312015	0.40204736724334755	0.18576277146047926	0.4764858846539439	0.31625710255026684	0.19860203197422788	0.4661523998756272	0.32500573747306266	0.16412176722428123	0.43887718811099796	0.4017052378991006	
464	9.098039215686274	0.3354015977137401	0.2995713176292407	0.7254537474470077	0.2954163332264607	-0.0739414772164887	0.7625882125064197	0.3045841338740944	-0.44968680111564185	0.8583963550639501	0.2956088245145674	-0.5518116325107516	0.7593265410260175	0.36184071248036165	-0.5333281621961097	0.7704068408291197	0.2884732110771345	-0.5136887823859639	0.9171959586738	0.1289285244742367	0.30351600358934316	0.7173431899438076	0.15765142768859705	-0.06278756624401022	0.7584400868244175	0.1520495445073448	-0.46114951237206286	0.9130850151345978	0.11249849202775844	-0.5089389672853034	0.7199669431603074	0.08382870067386636	-0.5077816333546403	0.7966567345105815	0.18002192228801936	-0.5196337606583968	0.962061165917322	0.18491559552897296	0.8279147986513569	0.4723299979077755	0.18864622077055482	1.0560928870414679	0.39563214748106623	0.19448883970778963	0.9119987297181426	0.33498178578353655	0.31252884036906853	0.7728294635506802	0.4485556763760475	0.3530601002429703	0.6260305389809248	0.30921438916486726	0.32765971145365425	0.5451179498141951	0.017814968614102478	0.2907976145230641	0.4969226830078157	-0.11914949834836741	0.30786878284599273	0.48990314700663395	-0.11142833266499594	0.3417262905683315	0.46948534062883485	-0.024130290093624135	0.054028906442580155	0.7628704725726323	0.5394983347102992	0.015758762563618866	0.5415847671576977	0.5575813201994555	0.1330914914266687	0.5158220536642748	0.39846517292464345	0.1854164329611367	0.4817790199372598	0.3160969898020959	0.19651014252035554	0.4721070633009878	0.317923318431597	0.1618016480229736	0.44298219986345644	0.3939393338810516	
465	9.117647058823527	0.3352693178657818	0.29909957804367704	0.7238396483841263	0.2963371161363222	-0.07518487091553083	0.76333466850955	0.30471664539589255	-0.4501733145120009	0.8578612173511336	0.29731097734824286	-0.5523099960280229	0.7616066974573718	0.36167676759320677	-0.5318628206870967	0.768763148551976	0.2888155406871339	-0.5140984261584229	0.9169151076519718	0.12897827686380248	0.3036711655039547	0.7145414931415675	0.15828262810186716	-0.06230058309517078	0.756148947762633	0.15214719839613175	-0.46131019408213514	0.9122686974815276	0.11294953602342109	-0.5082607115009339	0.7179489632513303	0.08381403882210661	-0.5079364015332524	0.7968611833296796	0.1802487704751236	-0.5213622859728196	0.9624556615001215	0.18619191530406132	0.8317510006498333	0.47370799039399436	0.1893316545788932	1.0574620846336973	0.39695305799429903	0.1950443989495799	0.9153010474093671	0.33657025978458377	0.31593843116200426	0.7754615869695685	0.4525672154286274	0.3565982335601631	0.6289702508053524	0.3183606939336029	0.3256712282561247	0.5536462716435326	0.024659587773311648	0.2866873790611976	0.5094717667433011	-0.11599072254255571	0.30236340029536435	0.5013372391795377	-0.10903088282800835	0.3355519997341121	0.4787630434690522	-0.02304440964187529	0.055258355471912206	0.7648274851501564	0.540561167780439	0.014587882995500477	0.5455511768531952	0.54946866368114	0.1311627456156927	0.5177845946843358	0.39511885522546825	0.18438925764488348	0.4894927529895845	0.31465760280120464	0.19373995699698687	0.48039329138905845	0.31137934119132327	0.1583486056845851	0.4496304545117461	0.3850650519117925	
